<svg xmlns="http://www.w3.org/2000/svg" viewBox="0 0 128 128" width="128" height="128">
  <defs>
    <linearGradient id="gradient" x1="0%" y1="0%" x2="100%" y2="100%">
      <stop offset="0%" style="stop-color:#667eea;stop-opacity:1" />
      <stop offset="100%" style="stop-color:#764ba2;stop-opacity:1" />
    </linearGradient>
  </defs>
  
  <!-- Background circle -->
  <circle cx="64" cy="64" r="60" fill="url(#gradient)" stroke="#ffffff" stroke-width="4"/>
  
  <!-- Form document -->
  <rect x="35" y="30" width="45" height="60" rx="4" fill="#ffffff" stroke="none"/>
  
  <!-- Form lines -->
  <line x1="42" y1="40" x2="72" y2="40" stroke="#667eea" stroke-width="2" stroke-linecap="round"/>
  <line x1="42" y1="48" x2="65" y2="48" stroke="#667eea" stroke-width="2" stroke-linecap="round"/>
  <line x1="42" y1="56" x2="70" y2="56" stroke="#667eea" stroke-width="2" stroke-linecap="round"/>
  <line x1="42" y1="64" x2="60" y2="64" stroke="#667eea" stroke-width="2" stroke-linecap="round"/>
  <line x1="42" y1="72" x2="68" y2="72" stroke="#667eea" stroke-width="2" stroke-linecap="round"/>
  
  <!-- Magic wand -->
  <g transform="translate(85, 70) rotate(-30)">
    <rect x="0" y="0" width="2" height="20" fill="#FFD700"/>
    <polygon points="1,0 4,3 1,6 -2,3" fill="#FFD700"/>
  </g>
  
  <!-- Sparkles -->
  <g fill="#FFD700">
    <circle cx="85" cy="45" r="1.5"/>
    <circle cx="92" cy="52" r="1"/>
    <circle cx="78" cy="55" r="1"/>
    <polygon points="95,40 96,42 98,41 97,43 99,44 97,45 98,47 96,46 95,48 94,46 92,47 93,45 91,44 93,43 92,41 94,42" transform="scale(0.8)"/>
  </g>
</svg>
